<?xml version="1.0" encoding="UTF-8"?>
<!DOCTYPE svg PUBLIC "-//W3C//DTD SVG 1.1//EN" "http://www.w3.org/Graphics/SVG/1.1/DTD/svg11.dtd">
<!-- Creator: CorelDRAW 2020 (64-Bit) -->
<svg xmlns="http://www.w3.org/2000/svg" xml:space="preserve" width="95.45mm" height="137.684mm" version="1.1" style="shape-rendering:geometricPrecision; text-rendering:geometricPrecision; image-rendering:optimizeQuality; fill-rule:evenodd; clip-rule:evenodd"
viewBox="0 0 175.95 253.81"
 xmlns:xlink="http://www.w3.org/1999/xlink"
 xmlns:xodm="http://www.corel.com/coreldraw/odm/2003">
 <defs>
  <style type="text/css">
   <![CDATA[
    .str0 {stroke:#2B2A29;stroke-width:0.37;stroke-miterlimit:22.9256}
    .fil0 {fill:#2B2A29}
   ]]>
  </style>
 </defs>
 <g id="Capa_x0020_1">
  <metadata id="CorelCorpID_0Corel-Layer"/>
  <path class="fil0 str0" d="M0.18 100.71l0 4.55c0.72,3.28 3.66,5.75 7.15,5.75l24.24 0c3.74,0 6.86,-2.85 7.27,-6.49 0.03,-0.27 0.05,-0.55 0.05,-0.83l0 -2.98 0 -52.7c0,-5.01 4.1,-9.12 9.12,-9.12l79.94 0c5.01,0 9.12,4.1 9.12,9.12l0 79.94c0,4.47 -3.26,8.21 -7.51,8.97 -3,0.54 -8.25,0.27 -11.48,0.33 -3.99,0 -7.26,3.27 -7.26,7.26l0 24.05c0,3.68 2.78,6.75 6.34,7.2l3.88 0 23.8 0c17.02,0 30.95,-13.93 30.95,-30.95l0 -113.69c0,-17.02 -13.93,-30.95 -30.95,-30.95l-113.69 0c-17.02,0 -30.95,13.93 -30.95,30.95l0 69.58z"/>
  <path class="fil0 str0" d="M55.67 118.8c-3.99,0 -7.25,3.26 -7.25,7.25l0 18.81 0 17.24 0 21.46 0 8.39 -15.81 -5.25c-4.59,-1.52 -8.34,1.4 -8.34,6.49l0 16.57 0 19.05 0 14.52c0,5.66 4.63,10.29 10.29,10.29l83.81 0 10.33 0c5.66,0 10.29,-4.63 10.29,-10.29l0 -2.21c0.01,-0.14 0.01,-0.28 0.01,-0.42l0 -32.58c0,-5.49 -4.31,-10.88 -9.57,-11.97l-11.06 -2.3 -31.42 -6.52 0 -3.76 0 -38.71 0 -18.81c0,-3.99 -3.26,-7.25 -7.25,-7.25l-24.02 0z"/>
 </g>
</svg>
